<svg width="279" height="38" viewBox="0 0 279 38" fill="none" xmlns="http://www.w3.org/2000/svg">
<path d="M27.032 23.128C27.032 24.088 26.968 24.952 26.84 25.72H7.4C7.56 27.64 8.232 29.144 9.416 30.232C10.6 31.32 12.056 31.864 13.784 31.864C16.28 31.864 18.056 30.792 19.112 28.648H26.36C25.592 31.208 24.12 33.32 21.944 34.984C19.768 36.616 17.096 37.432 13.928 37.432C11.368 37.432 9.064 36.872 7.016 35.752C5 34.6 3.416 32.984 2.264 30.904C1.144 28.824 0.584 26.424 0.584 23.704C0.584 20.952 1.144 18.536 2.264 16.456C3.384 14.376 4.952 12.776 6.968 11.656C8.984 10.536 11.304 9.976 13.928 9.976C16.456 9.976 18.712 10.52 20.696 11.608C22.712 12.696 24.264 14.248 25.352 16.264C26.472 18.248 27.032 20.536 27.032 23.128ZM20.072 21.208C20.04 19.48 19.416 18.104 18.2 17.08C16.984 16.024 15.496 15.496 13.736 15.496C12.072 15.496 10.664 16.008 9.512 17.032C8.392 18.024 7.704 19.416 7.448 21.208H20.072ZM39.281 15.928V28.792C39.281 29.688 39.489 30.344 39.905 30.76C40.353 31.144 41.089 31.336 42.113 31.336H45.233V37H41.009C35.345 37 32.513 34.248 32.513 28.744V15.928H29.345V10.408H32.513V3.832H39.281V10.408H45.233V15.928H39.281ZM64.5624 10.024C66.5784 10.024 68.3704 10.472 69.9384 11.368C71.5064 12.232 72.7224 13.528 73.5864 15.256C74.4824 16.952 74.9304 19 74.9304 21.4V37H68.2104V22.312C68.2104 20.2 67.6824 18.584 66.6264 17.464C65.5704 16.312 64.1304 15.736 62.3064 15.736C60.4504 15.736 58.9784 16.312 57.8904 17.464C56.8344 18.584 56.3064 20.2 56.3064 22.312V37H49.5864V1.48H56.3064V13.72C57.1704 12.568 58.3224 11.672 59.7624 11.032C61.2024 10.36 62.8024 10.024 64.5624 10.024ZM79.1127 23.608C79.1127 20.92 79.6407 18.536 80.6967 16.456C81.7847 14.376 83.2407 12.776 85.0647 11.656C86.9207 10.536 88.9847 9.976 91.2567 9.976C93.2407 9.976 94.9687 10.376 96.4407 11.176C97.9447 11.976 99.1447 12.984 100.041 14.2V10.408H106.809V37H100.041V33.112C99.1767 34.36 97.9767 35.4 96.4407 36.232C94.9367 37.032 93.1927 37.432 91.2087 37.432C88.9687 37.432 86.9207 36.856 85.0647 35.704C83.2407 34.552 81.7847 32.936 80.6967 30.856C79.6407 28.744 79.1127 26.328 79.1127 23.608ZM100.041 23.704C100.041 22.072 99.7207 20.68 99.0807 19.528C98.4407 18.344 97.5767 17.448 96.4887 16.84C95.4007 16.2 94.2327 15.88 92.9847 15.88C91.7367 15.88 90.5847 16.184 89.5287 16.792C88.4727 17.4 87.6087 18.296 86.9367 19.48C86.2967 20.632 85.9767 22.008 85.9767 23.608C85.9767 25.208 86.2967 26.616 86.9367 27.832C87.6087 29.016 88.4727 29.928 89.5287 30.568C90.6167 31.208 91.7687 31.528 92.9847 31.528C94.2327 31.528 95.4007 31.224 96.4887 30.616C97.5767 29.976 98.4407 29.08 99.0807 27.928C99.7207 26.744 100.041 25.336 100.041 23.704ZM127.628 10.024C130.796 10.024 133.356 11.032 135.308 13.048C137.26 15.032 138.236 17.816 138.236 21.4V37H131.516V22.312C131.516 20.2 130.988 18.584 129.932 17.464C128.876 16.312 127.436 15.736 125.612 15.736C123.756 15.736 122.284 16.312 121.196 17.464C120.14 18.584 119.612 20.2 119.612 22.312V37H112.892V10.408H119.612V13.72C120.508 12.568 121.644 11.672 123.02 11.032C124.428 10.36 125.964 10.024 127.628 10.024ZM164.656 37.384C161.648 37.384 159.184 36.696 157.264 35.32C155.376 33.912 154.32 32.008 154.096 29.608H157.552C157.712 31.08 158.4 32.28 159.616 33.208C160.864 34.104 162.528 34.552 164.608 34.552C166.432 34.552 167.856 34.12 168.88 33.256C169.936 32.392 170.464 31.32 170.464 30.04C170.464 29.144 170.176 28.408 169.6 27.832C169.024 27.256 168.288 26.808 167.392 26.488C166.528 26.136 165.344 25.768 163.84 25.384C161.888 24.872 160.304 24.36 159.088 23.848C157.872 23.336 156.832 22.584 155.968 21.592C155.136 20.568 154.72 19.208 154.72 17.512C154.72 16.232 155.104 15.048 155.872 13.96C156.64 12.872 157.728 12.008 159.136 11.368C160.544 10.728 162.144 10.408 163.936 10.408C166.752 10.408 169.024 11.128 170.752 12.568C172.48 13.976 173.408 15.928 173.536 18.424H170.176C170.08 16.888 169.472 15.656 168.352 14.728C167.264 13.768 165.76 13.288 163.84 13.288C162.144 13.288 160.768 13.688 159.712 14.488C158.656 15.288 158.128 16.28 158.128 17.464C158.128 18.488 158.432 19.336 159.04 20.008C159.68 20.648 160.464 21.16 161.392 21.544C162.32 21.896 163.568 22.296 165.136 22.744C167.024 23.256 168.528 23.752 169.648 24.232C170.768 24.712 171.728 25.416 172.528 26.344C173.328 27.272 173.744 28.504 173.776 30.04C173.776 31.448 173.392 32.712 172.624 33.832C171.856 34.92 170.784 35.784 169.408 36.424C168.032 37.064 166.448 37.384 164.656 37.384ZM210.821 10.312C213.893 10.312 216.389 11.288 218.309 13.24C220.261 15.16 221.237 17.96 221.237 21.64V37H217.925V22.024C217.925 19.176 217.237 17 215.861 15.496C214.485 13.992 212.613 13.24 210.245 13.24C207.781 13.24 205.813 14.056 204.341 15.688C202.869 17.32 202.133 19.688 202.133 22.792V37H198.821V22.024C198.821 19.176 198.133 17 196.757 15.496C195.381 13.992 193.493 13.24 191.093 13.24C188.629 13.24 186.661 14.056 185.189 15.688C183.717 17.32 182.981 19.688 182.981 22.792V37H179.621V10.792H182.981V15.304C183.813 13.672 184.997 12.44 186.533 11.608C188.069 10.744 189.781 10.312 191.669 10.312C193.941 10.312 195.925 10.856 197.621 11.944C199.349 13.032 200.597 14.632 201.365 16.744C202.069 14.664 203.269 13.08 204.965 11.992C206.693 10.872 208.645 10.312 210.821 10.312ZM229.899 5.848C229.227 5.848 228.651 5.608 228.171 5.128C227.691 4.648 227.451 4.056 227.451 3.352C227.451 2.648 227.691 2.072 228.171 1.624C228.651 1.144 229.227 0.903998 229.899 0.903998C230.571 0.903998 231.147 1.144 231.627 1.624C232.107 2.072 232.347 2.648 232.347 3.352C232.347 4.056 232.107 4.648 231.627 5.128C231.147 5.608 230.571 5.848 229.899 5.848ZM231.579 10.792V37H228.219V10.792H231.579ZM243.075 13.624V29.896C243.075 31.496 243.379 32.6 243.987 33.208C244.595 33.816 245.667 34.12 247.203 34.12H250.275V37H246.675C244.307 37 242.547 36.456 241.395 35.368C240.243 34.248 239.667 32.424 239.667 29.896V13.624H236.019V10.792H239.667V4.216H243.075V10.792H250.275V13.624H243.075ZM267.817 10.312C269.801 10.312 271.577 10.728 273.145 11.56C274.745 12.392 275.993 13.672 276.889 15.4C277.817 17.096 278.281 19.176 278.281 21.64V37H274.969V22.024C274.969 19.176 274.249 17 272.809 15.496C271.401 13.992 269.465 13.24 267.001 13.24C264.473 13.24 262.457 14.04 260.953 15.64C259.449 17.24 258.697 19.592 258.697 22.696V37H255.337V1.48H258.697V15.256C259.529 13.688 260.745 12.472 262.345 11.608C263.977 10.744 265.801 10.312 267.817 10.312Z" fill="white"/>
</svg>
